{
  "accessors": [
    {
      "bufferView": 2,
      "componentType": 5126,
      "count": 2816,
      "max": [
        1.4088799953460693,
        0.36012101173400879,
        0.087214000523090363
      ],
      "min": [
        -0.88453102111816406,
        -1.2025200128555298,
        -0.0027860100381076336
      ],
      "type": "VEC3"
    },
    {
      "bufferView": 2,
      "byteOffset": 33792,
      "componentType": 5126,
      "count": 2816,
      "max": [
        0.99969476461410522,
        0.99969512224197388,
        0.99889349937438965
      ],
      "min": [
        -0.99969851970672607,
        -0.99969476461410522,
        -0.99889349937438965
      ],
      "type": "VEC3"
    },
    {
      "bufferView": 3,
      "componentType": 5126,
      "count": 2816,
      "max": [
        0.94111484289169312,
        0.75752174854278564,
        0.99998825788497925,
        1
      ],
      "min": [
        -0.94797110557556152,
        -0.75746762752532959,
        -0.99998456239700317,
        1
      ],
      "type": "VEC4"
    },
    {
      "bufferView": 1,
      "componentType": 5126,
      "count": 2816,
      "max": [
        2.6153800487518311,
        2.6153700351715088
      ],
      "min": [
        -1.6153800487518311,
        -1.6153800487518311
      ],
      "type": "VEC2"
    },
    {
      "bufferView": 0,
      "componentType": 5125,
      "count": 13968,
      "max": [
        2815
      ],
      "min": [
        0
      ],
      "type": "SCALAR"
    },
    {
      "bufferView": 2,
      "byteOffset": 67584,
      "componentType": 5126,
      "count": 2009,
      "max": [
        1.1023199558258057,
        0.21997599303722382,
        0.80136597156524658
      ],
      "min": [
        -0.750527024269104,
        -1.1912599802017212,
        0.43188300728797913
      ],
      "type": "VEC3"
    },
    {
      "bufferView": 2,
      "byteOffset": 91692,
      "componentType": 5126,
      "count": 2009,
      "max": [
        0.99759387969970703,
        0.9993782639503479,
        0.9999578595161438
      ],
      "min": [
        -0.9999079704284668,
        -0.99903374910354614,
        -0.99960553646087646
      ],
      "type": "VEC3"
    },
    {
      "bufferView": 3,
      "byteOffset": 45056,
      "componentType": 5126,
      "count": 2009,
      "max": [
        0.99999946355819702,
        0.99999946355819702,
        0.87011897563934326,
        1
      ],
      "min": [
        -0.9998624324798584,
        -0.99999964237213135,
        -0.87597006559371948,
        1
      ],
      "type": "VEC4"
    },
    {
      "bufferView": 1,
      "byteOffset": 22528,
      "componentType": 5126,
      "count": 2009,
      "max": [
        0.89354199171066284,
        0.90211498737335205
      ],
      "min": [
        0.1081399992108345,
        0.50164902210235596
      ],
      "type": "VEC2"
    },
    {
      "bufferView": 0,
      "byteOffset": 55872,
      "componentType": 5125,
      "count": 7596,
      "max": [
        2008
      ],
      "min": [
        0
      ],
      "type": "SCALAR"
    },
    {
      "bufferView": 2,
      "byteOffset": 115800,
      "componentType": 5126,
      "count": 2217,
      "max": [
        1.3250999450683594,
        0.22785300016403198,
        0.80270898342132568
      ],
      "min": [
        -0.74236601591110229,
        -1.1820700168609619,
        0.25034201145172119
      ],
      "type": "VEC3"
    },
    {
      "bufferView": 2,
      "byteOffset": 142404,
      "componentType": 5126,
      "count": 2217,
      "max": [
        0.99979597330093384,
        0.99989378452301025,
        0.99999433755874634
      ],
      "min": [
        -0.99930721521377563,
        -0.99968433380126953,
        -0.99999326467514038
      ],
      "type": "VEC3"
    },
    {
      "bufferView": 3,
      "byteOffset": 77200,
      "componentType": 5126,
      "count": 2217,
      "max": [
        0.99998605251312256,
        0.99999040365219116,
        0.87908262014389038,
        1
      ],
      "min": [
        -0.99999392032623291,
        -0.99994051456451416,
        -0.85832208395004272,
        1
      ],
      "type": "VEC4"
    },
    {
      "bufferView": 1,
      "byteOffset": 38600,
      "componentType": 5126,
      "count": 2217,
      "max": [
        0.90043097734451294,
        0.89893001317977905
      ],
      "min": [
        0.10432399809360504,
        0.4353959858417511
      ],
      "type": "VEC2"
    },
    {
      "bufferView": 0,
      "byteOffset": 86256,
      "componentType": 5125,
      "count": 7644,
      "max": [
        2216
      ],
      "min": [
        0
      ],
      "type": "SCALAR"
    },
    {
      "bufferView": 2,
      "byteOffset": 169008,
      "componentType": 5126,
      "count": 1195,
      "max": [
        1.4218599796295166,
        0.39124900102615356,
        0.73584097623825073
      ],
      "min": [
        -0.90385401248931885,
        -1.2342400550842285,
        0.047558899968862534
      ],
      "type": "VEC3"
    },
    {
      "bufferView": 2,
      "byteOffset": 183348,
      "componentType": 5126,
      "count": 1195,
      "max": [
        0.99925523996353149,
        0.99870145320892334,
        0.99997526407241821
      ],
      "min": [
        -0.99873065948486328,
        -0.99985945224761963,
        -0.99998211860656738
      ],
      "type": "VEC3"
    },
    {
      "bufferView": 3,
      "byteOffset": 112672,
      "componentType": 5126,
      "count": 1195,
      "max": [
        0.99999904632568359,
        1,
        0.85541796684265137,
        1
      ],
      "min": [
        -0.99946993589401245,
        -0.99984830617904663,
        -0.91183727979660034,
        1
      ],
      "type": "VEC4"
    },
    {
      "bufferView": 1,
      "byteOffset": 56336,
      "componentType": 5126,
      "count": 1195,
      "max": [
        0.94938600063323975,
        0.94813799858093262
      ],
      "min": [
        0.050831999629735947,
        0.34811800718307495
      ],
      "type": "VEC2"
    },
    {
      "bufferView": 0,
      "byteOffset": 116832,
      "componentType": 5125,
      "count": 3690,
      "max": [
        1194
      ],
      "min": [
        0
      ],
      "type": "SCALAR"
    }
  ],
  "asset": {
    "extras": {
      "author": "Zuo Modern (https://sketchfab.com/zuo)",
      "license": "CC-BY-NC-ND-4.0 (http://creativecommons.org/licenses/by-nc-nd/4.0/)",
      "source": "https://sketchfab.com/models/a57ad51f24b84b8da999e82e9327fe5b",
      "title": "Monroe Sofa Snow - 100690"
    },
    "generator": "Sketchfab-3.20.7",
    "version": "2.0"
  },
  "bufferViews": [
    {
      "buffer": 0,
      "byteLength": 131592,
      "byteOffset": 0,
      "name": "floatBufferViews",
      "target": 34963
    },
    {
      "buffer": 0,
      "byteLength": 65896,
      "byteOffset": 131592,
      "byteStride": 8,
      "name": "floatBufferViews",
      "target": 34962
    },
    {
      "buffer": 0,
      "byteLength": 197688,
      "byteOffset": 197488,
      "byteStride": 12,
      "name": "floatBufferViews",
      "target": 34962
    },
    {
      "buffer": 0,
      "byteLength": 131792,
      "byteOffset": 395176,
      "byteStride": 16,
      "name": "floatBufferViews",
      "target": 34962
    }
  ],
  "buffers": [
    {
      "byteLength": 526968,
      "uri": "scene.bin"
    }
  ],
  "images": [
    {
      "uri": "textures/Tela_baseColor.jpeg"
    },
    {
      "uri": "textures/Madera_baseColor.jpeg"
    }
  ],
  "materials": [
    {
      "doubleSided": true,
      "emissiveFactor": [
        0,
        0,
        0
      ],
      "name": "Madera",
      "pbrMetallicRoughness": {
        "baseColorFactor": [
          1,
          1,
          1,
          1
        ],
        "baseColorTexture": {
          "index": 1,
          "texCoord": 0
        },
        "metallicFactor": 0,
        "roughnessFactor": 0.98727207790000004
      }
    },
    {
      "doubleSided": true,
      "emissiveFactor": [
        0,
        0,
        0
      ],
      "name": "Tela",
      "pbrMetallicRoughness": {
        "baseColorFactor": [
          1,
          1,
          1,
          1
        ],
        "baseColorTexture": {
          "index": 0,
          "texCoord": 0
        },
        "metallicFactor": 0,
        "roughnessFactor": 0.9865456574
      }
    }
  ],
  "meshes": [
    {
      "primitives": [
        {
          "attributes": {
            "NORMAL": 1,
            "POSITION": 0,
            "TANGENT": 2,
            "TEXCOORD_0": 3
          },
          "indices": 4,
          "material": 0,
          "mode": 4
        }
      ]
    },
    {
      "primitives": [
        {
          "attributes": {
            "NORMAL": 6,
            "POSITION": 5,
            "TANGENT": 7,
            "TEXCOORD_0": 8
          },
          "indices": 9,
          "material": 1,
          "mode": 4
        }
      ]
    },
    {
      "primitives": [
        {
          "attributes": {
            "NORMAL": 11,
            "POSITION": 10,
            "TANGENT": 12,
            "TEXCOORD_0": 13
          },
          "indices": 14,
          "material": 1,
          "mode": 4
        }
      ]
    },
    {
      "primitives": [
        {
          "attributes": {
            "NORMAL": 16,
            "POSITION": 15,
            "TANGENT": 17,
            "TEXCOORD_0": 18
          },
          "indices": 19,
          "material": 1,
          "mode": 4
        }
      ]
    }
  ],
  "nodes": [
    {
      "children": [
        1
      ],
      "name": "RootNode (gltf orientation matrix)",
      "rotation": [
        -0.70710678118654746,
        -0,
        -0,
        0.70710678118654757
      ]
    },
    {
      "children": [
        2
      ],
      "name": "RootNode (model correction matrix)"
    },
    {
      "children": [
        3,
        4,
        5,
        6
      ],
      "name": "100690.obj.cleaner.materialmerger.gles"
    },
    {
      "mesh": 0,
      "name": ""
    },
    {
      "mesh": 1,
      "name": ""
    },
    {
      "mesh": 2,
      "name": ""
    },
    {
      "mesh": 3,
      "name": ""
    }
  ],
  "samplers": [
    {
      "magFilter": 9729,
      "minFilter": 9987,
      "wrapS": 10497,
      "wrapT": 10497
    }
  ],
  "scene": 0,
  "scenes": [
    {
      "name": "OSG_Scene",
      "nodes": [
        0
      ]
    }
  ],
  "textures": [
    {
      "sampler": 0,
      "source": 0
    },
    {
      "sampler": 0,
      "source": 1
    }
  ]
}

